<svg xmlns="http://www.w3.org/2000/svg" width="70" height="70" viewBox="0 0 70 70"><defs><style>.a{fill:#7fba00;}.b{fill:#fff;}</style></defs><g transform="translate(-20 -1480)"><circle class="a" cx="35" cy="35" r="35" transform="translate(20 1480)"/><g transform="translate(36.625 1497.063)"><path class="b" d="M166,4.39l1.82,1.82,1.974,1.975a2.263,2.263,0,0,0,1.611.667h0a2.278,2.278,0,0,0,1.611-3.889L169.22,1.167a2.278,2.278,0,0,0-3.231,3.213Zm0,0" transform="translate(-153.473 -0.5)"/><path class="b" d="M99.867,70.523l1.187,1.187,2.607,2.607,0,0,.933.933.013.013a2.278,2.278,0,1,0,3.222-3.222l-.939-.94-.01-.01-2.175-2.175L103.09,67.3l0,0h0a2.278,2.278,0,0,0-3.227,3.217Zm0,0" transform="translate(-92.085 -61.889)"/><path class="b" d="M33.726,136.663l3.776,3.775.012.012a2.278,2.278,0,0,0,3.224-3.219l-2.4-2.4-1.4-1.4a2.278,2.278,0,1,0-3.222,3.222Zm0,0" transform="translate(-30.68 -123.279)"/><path class="b" d="M3.52,238.708a2.261,2.261,0,0,0,1.24.63l.028,0a2.292,2.292,0,0,0,.336.024,2.278,2.278,0,0,0,1.611-3.889l-2.846-2.846a2.278,2.278,0,1,0-3.222,3.221l.012.012L3.512,238.7Zm0,0" transform="translate(0 -215.362)"/><path class="b" d="M71.268,17.784a2.276,2.276,0,0,0-2.775-.348,1.076,1.076,0,0,1-1.4-.262l-.064-.082a1.075,1.075,0,0,1,.087-1.423L68.9,13.892l.018-.017a2.278,2.278,0,0,0-3.239-3.205,1.076,1.076,0,1,1-1.521-1.522,2.278,2.278,0,0,0-3.222-3.222A1.076,1.076,0,1,1,59.409,4.4a2.278,2.278,0,1,0-3.222-3.222L55.093,2.276l1.179,1.18A4.431,4.431,0,0,1,53.587,11a4.449,4.449,0,0,1,.188,1.284,4.436,4.436,0,0,1-5.717,4.241,4.423,4.423,0,0,1-3.678,3.923,4.429,4.429,0,0,1-4.048,6.227h0c-.048,0-.1,0-.145,0L38.426,28.43a1.777,1.777,0,0,0-.493,1.371,2.409,2.409,0,0,0,.722,1.574l4.792,4.793a2.246,2.246,0,0,0,3.173,0l2.717-2.717,1.038-.279a12.389,12.389,0,0,0,11.923-3.2l6.11-6.11.014-.015,2.845-2.845A2.281,2.281,0,0,0,71.268,17.784Zm0,0" transform="translate(-35.209 -0.515)"/><path class="b" d="M340.911,376.93l-3.983,3.983a14.511,14.511,0,0,1-4.787,3.179l1.49,1.49a2.246,2.246,0,0,0,3.173,0l4.793-4.792c.86-.86,1.066-2.107.45-2.723Zm0,0" transform="translate(-308.317 -349.929)"/></g></g></svg>