<svg xmlns="http://www.w3.org/2000/svg" xmlns:xlink="http://www.w3.org/1999/xlink" width="170.603" height="35.128" viewBox="0 0 170.603 35.128"><defs><style>.a{fill:#da000c;}.b{fill:url(#a);}.c{fill:url(#b);}.d{fill:#6fc3d4;}.e{fill:url(#c);}.f{fill:url(#d);}.g{fill:#c5a98b;}.h{fill:url(#e);}.i{fill:url(#f);}.j{fill:#9d6a3b;}.k{fill:url(#g);}.l{fill:url(#h);}.m{fill:#46962a;}.n{fill:url(#i);}.o{fill:url(#j);}.p{fill:#ea7a00;}.q{fill:url(#k);}.r{fill:url(#l);}.s{fill:#1c93cf;}.t{fill:url(#m);}.u{fill:url(#n);}.v{fill:#1e8e83;}.w{fill:url(#o);}.x{fill:url(#p);}.y{fill:#74156a;}.z{fill:url(#q);}.aa{fill:url(#r);}.ab{fill:#fff;}</style><linearGradient id="a" x1="0.78" y1="-1.944" x2="1.467" y2="-1.178" gradientUnits="objectBoundingBox"><stop offset="0" stop-color="#64605f"/><stop offset="1" stop-color="#fff"/></linearGradient><linearGradient id="b" x1="0.847" y1="-2.168" x2="1.535" y2="-1.402" gradientUnits="objectBoundingBox"><stop offset="0" stop-color="#fff"/><stop offset="1" stop-color="#64605f"/></linearGradient><linearGradient id="c" x1="0.67" y1="-1.863" x2="1.401" y2="-1.138" xlink:href="#a"/><linearGradient id="d" x1="0.728" y1="-2.081" x2="1.458" y2="-1.356" xlink:href="#b"/><linearGradient id="e" x1="0.523" y1="-1.788" x2="1.296" y2="-1.092" xlink:href="#a"/><linearGradient id="f" x1="0.567" y1="-1.999" x2="1.339" y2="-1.303" xlink:href="#b"/><linearGradient id="g" x1="0.453" y1="-1.766" x2="1.128" y2="-1.071" xlink:href="#a"/><linearGradient id="h" x1="0.483" y1="-1.975" x2="1.159" y2="-1.279" xlink:href="#b"/><linearGradient id="i" x1="0.289" y1="-1.706" x2="1.014" y2="-1.036" xlink:href="#a"/><linearGradient id="j" x1="0.305" y1="-1.91" x2="1.029" y2="-1.24" xlink:href="#b"/><linearGradient id="k" x1="0.092" y1="-1.645" x2="0.862" y2="-0.993" xlink:href="#a"/><linearGradient id="l" x1="0.088" y1="-1.843" x2="0.859" y2="-1.191" xlink:href="#b"/><linearGradient id="m" x1="0.089" y1="-1.565" x2="0.756" y2="-0.941" xlink:href="#a"/><linearGradient id="n" x1="0.079" y1="-1.755" x2="0.746" y2="-1.132" xlink:href="#b"/><linearGradient id="o" x1="-0.131" y1="-1.53" x2="0.591" y2="-0.916" xlink:href="#a"/><linearGradient id="p" x1="-0.162" y1="-1.718" x2="0.561" y2="-1.104" xlink:href="#b"/><linearGradient id="q" x1="-0.382" y1="-1.488" x2="0.392" y2="-0.88" xlink:href="#a"/><linearGradient id="r" x1="-0.437" y1="-1.671" x2="0.337" y2="-1.064" xlink:href="#b"/></defs><g transform="translate(-272.894 -405.782)"><g transform="translate(272.894 405.782)"><g transform="translate(0)"><g transform="translate(0 0.818)"><path class="a" d="M259.019,403.525c1.174,2.738-.027,5.337-2.858,5.834a8,8,0,0,1-8.116-4.66c-1.341-3.126.365-5.777,3.582-5.912A8.212,8.212,0,0,1,259.019,403.525Z" transform="translate(-247.585 -398.782)"/><path class="b" d="M259.019,403.525c1.174,2.738-.027,5.337-2.858,5.834a8,8,0,0,1-8.116-4.66c-1.341-3.126.365-5.777,3.582-5.912A8.212,8.212,0,0,1,259.019,403.525Z" transform="translate(-247.585 -398.782)"/><path class="a" d="M261.869,406.2c1.065,2.483-.036,4.829-2.6,5.262a7.222,7.222,0,0,1-7.279-4.2c-1.2-2.8.312-5.186,3.193-5.325A7.388,7.388,0,0,1,261.869,406.2Z" transform="translate(-250.912 -401.407)"/><path class="c" d="M261.869,406.2c1.065,2.483-.036,4.829-2.6,5.262a7.222,7.222,0,0,1-7.279-4.2c-1.2-2.8.312-5.186,3.193-5.325A7.388,7.388,0,0,1,261.869,406.2Z" transform="translate(-250.912 -401.407)"/></g><g transform="translate(12.278 0.354)"><path class="d" d="M330.535,400.161c1.029,2.4.216,4.636-1.934,5.013-2.29.4-5.2-1.434-6.35-4.126s-.01-4.962,2.41-5.064C326.931,395.888,329.506,397.76,330.535,400.161Z" transform="translate(-321.798 -395.98)"/><path class="e" d="M330.535,400.161c1.029,2.4.216,4.636-1.934,5.013-2.29.4-5.2-1.434-6.35-4.126s-.01-4.962,2.41-5.064C326.931,395.888,329.506,397.76,330.535,400.161Z" transform="translate(-321.798 -395.98)"/><path class="d" d="M332.7,402.481c.932,2.175.187,4.191-1.762,4.521-2.063.349-4.667-1.309-5.7-3.722s-.02-4.458,2.148-4.562C329.429,398.619,331.763,400.306,332.7,402.481Z" transform="translate(-324.325 -398.261)"/><path class="f" d="M332.7,402.481c.932,2.175.187,4.191-1.762,4.521-2.063.349-4.667-1.309-5.7-3.722s-.02-4.458,2.148-4.562C329.429,398.619,331.763,400.306,332.7,402.481Z" transform="translate(-324.325 -398.261)"/></g><g transform="translate(21.502)"><path class="g" d="M384.483,397.578c.917,2.138.356,4.1-1.334,4.4-1.788.315-4.139-1.336-5.153-3.7s-.225-4.354,1.664-4.433C381.445,393.765,383.566,395.44,384.483,397.578Z" transform="translate(-377.55 -393.837)"/><path class="h" d="M384.483,397.578c.917,2.138.356,4.1-1.334,4.4-1.788.315-4.139-1.336-5.153-3.7s-.225-4.354,1.664-4.433C381.445,393.765,383.566,395.44,384.483,397.578Z" transform="translate(-377.55 -393.837)"/><path class="g" d="M386.191,399.629c.831,1.936.316,3.707-1.215,3.965-1.613.273-3.719-1.217-4.63-3.339s-.209-3.912,1.484-3.994C383.44,396.183,385.361,397.693,386.191,399.629Z" transform="translate(-379.549 -395.857)"/><path class="i" d="M386.191,399.629c.831,1.936.316,3.707-1.215,3.965-1.613.273-3.719-1.217-4.63-3.339s-.209-3.912,1.484-3.994C383.44,396.183,385.361,397.693,386.191,399.629Z" transform="translate(-379.549 -395.857)"/></g><g transform="translate(5.314 12.361)"><path class="j" d="M290.5,472.662c1.174,2.739.107,5.648-2.548,6.556-2.857.976-6.423-.711-7.763-3.837s.2-6.16,3.23-6.736A6.727,6.727,0,0,1,290.5,472.662Z" transform="translate(-279.705 -468.552)"/><path class="k" d="M290.5,472.662c1.174,2.739.107,5.648-2.548,6.556-2.857.976-6.423-.711-7.763-3.837s.2-6.16,3.23-6.736A6.727,6.727,0,0,1,290.5,472.662Z" transform="translate(-279.705 -468.552)"/><path class="j" d="M293.208,475.427c1.065,2.484.085,5.112-2.324,5.916a5.914,5.914,0,0,1-6.963-3.468c-1.2-2.8.165-5.527,2.877-6.062A6.052,6.052,0,0,1,293.208,475.427Z" transform="translate(-282.858 -471.199)"/><path class="l" d="M293.208,475.427c1.065,2.484.085,5.112-2.324,5.916a5.914,5.914,0,0,1-6.963-3.468c-1.2-2.8.165-5.527,2.877-6.062A6.052,6.052,0,0,1,293.208,475.427Z" transform="translate(-282.858 -471.199)"/></g><g transform="translate(16.853 10.408)"><path class="m" d="M357.712,460.435c1.029,2.4.317,4.874-1.7,5.563-2.148.734-4.931-.817-6.086-3.51s-.132-5.248,2.145-5.68C354.209,456.4,356.682,458.035,357.712,460.435Z" transform="translate(-349.449 -456.745)"/><path class="n" d="M357.712,460.435c1.029,2.4.317,4.874-1.7,5.563-2.148.734-4.931-.817-6.086-3.51s-.132-5.248,2.145-5.68C354.209,456.4,356.682,458.035,357.712,460.435Z" transform="translate(-349.449 -456.745)"/><path class="m" d="M359.766,462.82c.933,2.175.28,4.408-1.548,5.019-1.936.646-4.429-.757-5.464-3.17s-.129-4.713,1.912-5.115C356.592,459.174,358.833,460.644,359.766,462.82Z" transform="translate(-351.847 -459.039)"/><path class="o" d="M359.766,462.82c.933,2.175.28,4.408-1.548,5.019-1.936.646-4.429-.757-5.464-3.17s-.129-4.713,1.912-5.115C356.592,459.174,358.833,460.644,359.766,462.82Z" transform="translate(-351.847 -459.039)"/></g><g transform="translate(25.521 8.91)"><path class="p" d="M408.41,451.044c.916,2.138.436,4.289-1.149,4.831-1.678.573-3.933-.857-4.948-3.223s-.319-4.575,1.459-4.913C405.453,447.42,407.493,448.906,408.41,451.044Z" transform="translate(-401.844 -447.696)"/><path class="q" d="M408.41,451.044c.916,2.138.436,4.289-1.149,4.831-1.678.573-3.933-.857-4.948-3.223s-.319-4.575,1.459-4.913C405.453,447.42,407.493,448.906,408.41,451.044Z" transform="translate(-401.844 -447.696)"/><path class="p" d="M410.042,453.148c.831,1.936.39,3.878-1.048,4.358-1.512.5-3.534-.787-4.444-2.91s-.294-4.11,1.3-4.424C407.364,449.873,409.212,451.212,410.042,453.148Z" transform="translate(-403.749 -449.728)"/><path class="r" d="M410.042,453.148c.831,1.936.39,3.878-1.048,4.358-1.512.5-3.534-.787-4.444-2.91s-.294-4.11,1.3-4.424C407.364,449.873,409.212,451.212,410.042,453.148Z" transform="translate(-403.749 -449.728)"/></g><g transform="translate(10.58 23.707)"><path class="s" d="M321.707,540.717a5.662,5.662,0,0,1-2.242,7.271,5.415,5.415,0,0,1-7.413-3.02,5.3,5.3,0,1,1,9.655-4.25Z" transform="translate(-311.536 -537.134)"/><path class="t" d="M321.707,540.717a5.662,5.662,0,0,1-2.242,7.271,5.415,5.415,0,0,1-7.413-3.02,5.3,5.3,0,1,1,9.655-4.25Z" transform="translate(-311.536 -537.134)"/><path class="s" d="M324.27,543.619a5.1,5.1,0,0,1-2.045,6.565,4.884,4.884,0,0,1-6.65-2.737,4.769,4.769,0,1,1,8.7-3.828Z" transform="translate(-314.519 -539.851)"/><path class="u" d="M324.27,543.619a5.1,5.1,0,0,1-2.045,6.565,4.884,4.884,0,0,1-6.65-2.737,4.769,4.769,0,1,1,8.7-3.828Z" transform="translate(-314.519 -539.851)"/></g><g transform="translate(21.386 20.309)"><path class="v" d="M384.645,519.864c1.029,2.4.419,5.11-1.465,6.107-2.007,1.063-4.67-.206-5.824-2.9s-.254-5.53,1.883-6.291C381.245,516.066,383.616,517.464,384.645,519.864Z" transform="translate(-376.85 -516.594)"/><path class="w" d="M384.645,519.864c1.029,2.4.419,5.11-1.465,6.107-2.007,1.063-4.67-.206-5.824-2.9s-.254-5.53,1.883-6.291C381.245,516.066,383.616,517.464,384.645,519.864Z" transform="translate(-376.85 -516.594)"/><path class="v" d="M386.6,522.349c.932,2.175.372,4.623-1.337,5.512-1.809.942-4.195-.209-5.229-2.622s-.237-4.965,1.677-5.663C383.517,518.918,385.666,520.174,386.6,522.349Z" transform="translate(-379.126 -518.937)"/><path class="x" d="M386.6,522.349c.932,2.175.372,4.623-1.337,5.512-1.809.942-4.195-.209-5.229-2.622s-.237-4.965,1.677-5.663C383.517,518.918,385.666,520.174,386.6,522.349Z" transform="translate(-379.126 -518.937)"/></g><g transform="translate(29.504 17.699)"><path class="y" d="M432.124,503.823c.917,2.138.517,4.477-.964,5.261-1.567.829-3.729-.381-4.744-2.748s-.413-4.793,1.255-5.388C429.248,500.385,431.208,501.684,432.124,503.823Z" transform="translate(-425.92 -500.816)"/><path class="z" d="M432.124,503.823c.917,2.138.517,4.477-.964,5.261-1.567.829-3.729-.381-4.744-2.748s-.413-4.793,1.255-5.388C429.248,500.385,431.208,501.684,432.124,503.823Z" transform="translate(-425.92 -500.816)"/><path class="y" d="M433.681,506c.83,1.936.462,4.048-.881,4.747-1.414.736-3.352-.36-4.262-2.483s-.378-4.306,1.117-4.851C431.076,502.9,432.85,504.065,433.681,506Z" transform="translate(-427.732 -502.882)"/><path class="aa" d="M433.681,506c.83,1.936.462,4.048-.881,4.747-1.414.736-3.352-.36-4.262-2.483s-.378-4.306,1.117-4.851C431.076,502.9,432.85,504.065,433.681,506Z" transform="translate(-427.732 -502.882)"/></g></g></g><g transform="translate(322.441 405.782)"><g transform="translate(0.126)"><path class="ab" d="M517.345,438.509h3.978v21.443h8.8v3.507H517.345Z" transform="translate(-517.345 -438.037)"/><path class="ab" d="M574.721,449.892a12.8,12.8,0,1,1,0,.034Zm3.945-.135a9.428,9.428,0,1,0,0-.034Z" transform="translate(-558.773 -436.811)"/><path class="ab" d="M693.6,438.509h7.046c3.911,0,5.934.539,7.249,1.45a8.02,8.02,0,0,1,3.3,6.743,8.4,8.4,0,0,1-1.416,4.754,6.781,6.781,0,0,1-4.821,2.731l5.866,9.272h-4.214L699.767,452.2h.876c1.72,0,3.81-.067,4.99-1.079a5.3,5.3,0,0,0,1.719-4.08,5.112,5.112,0,0,0-2.124-4.214,7.917,7.917,0,0,0-4.248-.809h-3.405v21.443H693.6Z" transform="translate(-644.607 -438.037)"/><path class="ab" d="M780.085,438.509h13.958v3.506h-9.98v7.08h9.845v3.473h-9.845v7.383h9.98v3.507H780.085Z" transform="translate(-707.055 -438.037)"/><path class="ab" d="M857.352,463.458V438.509h5.462l7.754,19.319,7.653-19.319h5.428v24.949h-3.675l.1-21.038-8.26,21.038h-2.6l-8.26-21.038.1,21.038Z" transform="translate(-762.845 -438.037)"/></g><g transform="translate(0 29.002)"><path class="ab" d="M516.893,541.556h.941v5.9h-.941Z" transform="translate(-516.893 -541.444)"/><path class="ab" d="M543.164,541.556a2.375,2.375,0,0,1,1.659.4,1.849,1.849,0,0,1,.654,1.451,1.946,1.946,0,0,1-.614,1.452,2.307,2.307,0,0,1-1.611.438h-.829v2.161h-.941v-5.9Zm-.742,2.911h.813a1.643,1.643,0,0,0,.917-.2,1.051,1.051,0,0,0-.008-1.69,1.716,1.716,0,0,0-.941-.192h-.782Z" transform="translate(-534.647 -541.444)"/><path class="ab" d="M575.325,545.42a1.007,1.007,0,0,0,1,1.06.967.967,0,0,0,.981-.94c0-.654-.558-.806-1.316-1.085-.463-.151-1.491-.494-1.491-1.6a1.736,1.736,0,0,1,1.858-1.7,1.672,1.672,0,0,1,1.778,1.627h-.925a.863.863,0,0,0-.885-.829.844.844,0,0,0-.893.829c0,.574.439.718,1.388,1.069.733.311,1.419.686,1.419,1.643a1.745,1.745,0,0,1-1.906,1.786,1.784,1.784,0,0,1-1.938-1.858Z" transform="translate(-558.41 -541.153)"/><path class="ab" d="M609.3,541.556v3.684a1.75,1.75,0,0,0,.215,1.029,1.05,1.05,0,0,0,.909.47,1.008,1.008,0,0,0,.893-.455,1.71,1.71,0,0,0,.223-1.045v-3.684h.933v3.684a2.112,2.112,0,0,1-.638,1.81,2.03,2.03,0,0,1-1.4.519,2.012,2.012,0,0,1-2.073-2.329v-3.684Z" transform="translate(-582.938 -541.444)"/><path class="ab" d="M644.432,547.457v-5.9h1.292l1.834,4.569,1.81-4.569h1.284v5.9h-.869l.024-4.976-1.954,4.976h-.615l-1.954-4.976.024,4.976Z" transform="translate(-608.982 -541.444)"/><path class="ab" d="M713.681,545.42a1.007,1.007,0,0,0,1,1.06.967.967,0,0,0,.981-.94c0-.654-.558-.806-1.316-1.085-.462-.151-1.491-.494-1.491-1.6a1.736,1.736,0,0,1,1.858-1.7,1.672,1.672,0,0,1,1.778,1.627h-.925a.863.863,0,0,0-.885-.829.844.844,0,0,0-.893.829c0,.574.439.718,1.388,1.069.734.311,1.42.686,1.42,1.643a1.745,1.745,0,0,1-1.906,1.786,1.785,1.785,0,0,1-1.938-1.858Z" transform="translate(-658.308 -541.153)"/><path class="ab" d="M746.75,541.556h.941v5.9h-.941Z" transform="translate(-682.86 -541.444)"/><path class="ab" d="M771,542.385h-1.356v-.829H773.3v.829h-1.355v5.072H771Z" transform="translate(-699.391 -541.444)"/><path class="ab" d="M825.927,547.457h-1.021l2.425-5.9h.854l2.384,5.9h-1.021l-.558-1.4h-2.52Zm1.795-4.809-1,2.656h2.01Z" transform="translate(-739.292 -541.444)"/><path class="ab" d="M864.762,547.457v-5.9h1.291l1.835,4.569,1.81-4.569h1.284v5.9h-.869l.024-4.976-1.954,4.976h-.614l-1.954-4.976.024,4.976Z" transform="translate(-768.07 -541.444)"/><path class="ab" d="M908.461,541.556h3.3v.829H909.4v1.675h2.328v.821H909.4v1.746h2.36v.829h-3.3Z" transform="translate(-799.622 -541.444)"/><path class="ab" d="M940.63,542.385h-1.356v-.829h3.653v.829h-1.356v5.072h-.941Z" transform="translate(-821.871 -541.444)"/></g></g></g></svg>