<svg xmlns="http://www.w3.org/2000/svg" width="70" height="70" viewBox="0 0 70 70"><defs><style>.a{fill:#ffb900;}.b{fill:#fff;}</style></defs><g transform="translate(-100 -973)"><circle class="a" cx="35" cy="35" r="35" transform="translate(100 973)"/><g transform="translate(117.937 994.438)"><g transform="translate(0)"><path class="b" d="M34.063,59.068l-2.119-7.977a1.3,1.3,0,0,0-.15-.347,2.822,2.822,0,0,0,.188-1.012V36.582a3.092,3.092,0,0,0-3.178-2.99H5.32a3.092,3.092,0,0,0-3.178,2.99V49.731a2.816,2.816,0,0,0,.188,1.012,1.293,1.293,0,0,0-.151.347L.042,59.132A1.279,1.279,0,0,0,.3,60.282a1.458,1.458,0,0,0,1.123.515H32.7a1.384,1.384,0,0,0,1.424-1.34A1.268,1.268,0,0,0,34.063,59.068ZM20.671,58.7H13.452a.288.288,0,0,1-.216-.095.253.253,0,0,1-.061-.217l.562-2.937a.277.277,0,0,1,.277-.218h6.093a.277.277,0,0,1,.277.218l.558,2.913a.25.25,0,0,1,.01.07A.273.273,0,0,1,20.671,58.7Zm8.534-8.97a.379.379,0,0,1-.236.344H5.154a.378.378,0,0,1-.236-.344V36.582a.392.392,0,0,1,.4-.379H28.8a.392.392,0,0,1,.4.379V49.731Z" transform="translate(0 -33.592)"/><path class="b" d="M185.423,125.677l.89-.228a.4.4,0,0,0,.31-.364.4.4,0,0,0-.272-.39l-4.1-1.464a.441.441,0,0,0-.448.09.38.38,0,0,0-.1.421l1.556,3.86a.423.423,0,0,0,.415.256.417.417,0,0,0,.387-.292l.243-.837,2.076,1.953a.44.44,0,0,0,.6,0l.522-.491a.381.381,0,0,0,0-.561Z" transform="translate(-167.588 -116.666)"/></g></g></g></svg>