<svg xmlns="http://www.w3.org/2000/svg" width="70" height="70" viewBox="0 0 70 70"><defs><style>.a{fill:#00a4ef;}.b{fill:#fff;}</style></defs><g transform="translate(-100 -814)"><circle class="a" cx="35" cy="35" r="35" transform="translate(100 814)"/><g transform="translate(119.687 831.063)"><path class="b" d="M127.293,158.457a6.852,6.852,0,1,0,6.852,6.852A6.86,6.86,0,0,0,127.293,158.457Zm4.068,5.562-4.909,4.909a1.055,1.055,0,0,1-1.492,0l-1.876-1.876a1.055,1.055,0,1,1,1.492-1.492l1.13,1.13,4.163-4.163a1.055,1.055,0,0,1,1.492,1.492Zm0,0" transform="translate(-111.981 -147.327)"/><path class="b" d="M30.589,9.757V9.729c-.016-.345-.026-.711-.032-1.118a3.812,3.812,0,0,0-3.589-3.734A14.79,14.79,0,0,1,16.9.634L16.877.612a2.3,2.3,0,0,0-3.128,0l-.023.022A14.792,14.792,0,0,1,3.659,4.878,3.811,3.811,0,0,0,.07,8.612c-.006.4-.017.769-.032,1.117l0,.065c-.08,4.216-.18,9.464,1.575,14.227a18.11,18.11,0,0,0,4.345,6.768,22.728,22.728,0,0,0,8.5,5.029,2.634,2.634,0,0,0,.348.095,2.574,2.574,0,0,0,1.012,0,2.642,2.642,0,0,0,.35-.1,22.743,22.743,0,0,0,8.493-5.032,18.136,18.136,0,0,0,4.345-6.769C30.769,19.239,30.67,13.981,30.589,9.757ZM15.313,26.944a8.963,8.963,0,1,1,8.963-8.963A8.973,8.973,0,0,1,15.313,26.944Zm0,0" transform="translate(0 0.001)"/></g></g></svg>