<svg xmlns="http://www.w3.org/2000/svg" xmlns:xlink="http://www.w3.org/1999/xlink" width="49" height="49" viewBox="0 0 49 49"><defs><style>.a,.c{fill:#fff;}.a{stroke:#707070;}.b{clip-path:url(#a);}</style><clipPath id="a"><rect class="a" width="49" height="49" transform="translate(138 1323)"/></clipPath></defs><g class="b" transform="translate(-138 -1323)"><g transform="translate(138 1323)"><path class="c" d="M22.139,49A22.038,22.038,0,0,0,41.59,16.623a3.881,3.881,0,0,1-.545.036c-.1,0-.211-.005-.319-.01l-2.8-.216-2.016,2.016a16.212,16.212,0,1,1-5.245-5.239l1.825-1.825L32.243,8.17a4.231,4.231,0,0,1,.01-.766A22.027,22.027,0,1,0,22.139,49Z"/><path class="c" d="M22.139,21.281q.216,0,.432.015l4.067-4.067.087-.087a10.857,10.857,0,1,0,5.239,5.244l-.087.087-4.067,4.067q.016.216.015.432a5.689,5.689,0,1,1-5.687-5.692Z"/><path class="c" d="M44.84,7.332l1.306-1.306a1.521,1.521,0,0,0,0-2.154l-.905-.91a1.514,1.514,0,0,0-2.149,0l-1.5,1.5L41.287.473a.514.514,0,0,0-.874-.324L34.526,6.036a2.574,2.574,0,0,0-.746,2.016l.015.231.283,3.687L31.95,14.1l-3.831,3.831-.087.087-3.707,3.707-1.645,1.645a1.268,1.268,0,0,0-.37.807l-.1,1.291a1.285,1.285,0,0,0,1.28,1.388h.067l1.363-.067a1.266,1.266,0,0,0,.843-.375l1.63-1.63L31.1,21.076l.087-.087,3.831-3.831,2.314-2.314,3.363.257.149.01c.067.005.134.005.2.005a2.586,2.586,0,0,0,1.82-.751l5.882-5.882a.513.513,0,0,0-.324-.874Z"/></g></g></svg>