<svg xmlns="http://www.w3.org/2000/svg" width="70" height="82.203" viewBox="0 0 70 82.203"><defs><style>.a{fill:#fff;}</style></defs><g transform="translate(0 0.001)"><path class="a" d="M136.1,158.457a15.662,15.662,0,1,0,15.662,15.662A15.68,15.68,0,0,0,136.1,158.457Zm9.3,12.712-11.22,11.22a2.411,2.411,0,0,1-3.411,0l-4.288-4.288a2.412,2.412,0,0,1,3.41-3.41l2.583,2.583,9.516-9.515a2.412,2.412,0,0,1,3.41,3.41Zm0,0" transform="translate(-101.104 -133.017)"/><path class="a" d="M69.919,22.3l0-.064c-.036-.79-.06-1.625-.074-2.555a8.712,8.712,0,0,0-8.2-8.535c-9.451-.527-16.763-3.609-23.01-9.7L38.576,1.4a5.261,5.261,0,0,0-7.15,0l-.053.051c-6.247,6.089-13.558,9.171-23.01,9.7a8.712,8.712,0,0,0-8.2,8.535c-.014.923-.038,1.759-.074,2.554l0,.149C-.1,32.025-.33,44.019,3.683,54.906a41.4,41.4,0,0,0,9.931,15.469,51.951,51.951,0,0,0,19.434,11.5,6.019,6.019,0,0,0,.8.217,5.883,5.883,0,0,0,2.313,0,6.038,6.038,0,0,0,.8-.218,51.985,51.985,0,0,0,19.413-11.5A41.453,41.453,0,0,0,66.3,54.895C70.329,43.975,70.1,31.958,69.919,22.3ZM35,61.588A20.486,20.486,0,1,1,55.486,41.1,20.509,20.509,0,0,1,35,61.588Zm0,0" transform="translate(0)"/></g></svg>