<svg xmlns="http://www.w3.org/2000/svg" width="83.942" height="82.991" viewBox="0 0 83.942 82.991"><defs><style>.a{fill:#fff;}</style></defs><g transform="translate(0 -0.5)"><path class="a" d="M166.858,9.392l4.159,4.159,4.512,4.513a5.174,5.174,0,0,0,3.681,1.524h0a5.207,5.207,0,0,0,3.682-8.89l-8.674-8.673a5.207,5.207,0,0,0-7.384,7.344Zm0,0" transform="translate(-138.226)"/><path class="a" d="M100.725,75.525l2.714,2.714L109.4,84.2l.007.007,2.132,2.132.03.029A5.207,5.207,0,1,0,118.929,79l-2.147-2.148-.023-.022-4.97-4.971-3.7-3.7-.005-.005h0a5.207,5.207,0,0,0-7.375,7.353Zm0,0" transform="translate(-82.936 -55.29)"/><path class="a" d="M34.594,141.673l8.63,8.63.027.026a5.207,5.207,0,0,0,7.369-7.359l-5.479-5.478-3.2-3.2a5.207,5.207,0,1,0-7.364,7.364Zm0,0" transform="translate(-27.632 -110.581)"/><path class="a" d="M8.046,247.378a5.168,5.168,0,0,0,2.834,1.44l.064.011a5.243,5.243,0,0,0,.767.056A5.207,5.207,0,0,0,15.393,240l-6.5-6.5a5.207,5.207,0,1,0-7.365,7.363l.027.028,6.477,6.476Zm0,0" transform="translate(0 -193.516)"/><path class="a" d="M114.131,39.987a5.2,5.2,0,0,0-6.343-.795,2.459,2.459,0,0,1-3.2-.6l-.145-.187a2.458,2.458,0,0,1,.2-3.252l4.064-4.065.04-.039a5.208,5.208,0,0,0-7.4-7.326,2.459,2.459,0,1,1-3.478-3.478A5.208,5.208,0,0,0,90.5,12.881,2.459,2.459,0,1,1,87.025,9.4,5.207,5.207,0,0,0,79.66,2.039l-2.5,2.5,2.7,2.7A10.128,10.128,0,0,1,73.718,24.47a10.17,10.17,0,0,1,.43,2.936A10.14,10.14,0,0,1,61.081,37.1a10.11,10.11,0,0,1-8.406,8.968A10.122,10.122,0,0,1,43.423,60.3h0c-.111,0-.221,0-.331-.008L39.064,64.32a4.061,4.061,0,0,0-1.128,3.133,5.505,5.505,0,0,0,1.65,3.6L50.54,82.005a5.135,5.135,0,0,0,7.253,0L64,75.8l2.374-.637a28.318,28.318,0,0,0,27.252-7.3l13.966-13.966.033-.033,6.5-6.5A5.214,5.214,0,0,0,114.131,39.987Zm0,0" transform="translate(-31.711 -0.013)"/><path class="a" d="M352.186,376.93l-9.1,9.1a33.172,33.172,0,0,1-10.941,7.266l3.406,3.407a5.135,5.135,0,0,0,7.253,0l10.955-10.954c1.966-1.965,2.437-4.816,1.028-6.224Zm0,0" transform="translate(-277.686 -314.714)"/></g></svg>